<svg viewBox="0 0 900 900" version="1.2" xmlns="http://www.w3.org/2000/svg">

    <rect x="10" rx="10" y="5" ry="5" width="10" height="85" fill="#fff"></rect>
    <rect x="30" y="5" width="250" height="10" fill="#fff" />
    <rect x="30" y="20" width="250" height="10" fill="#fff" />
    <rect x="30" y="35" width="250" height="10" fill="#fff" />
    <rect x="30" y="50" width="250" height="10" fill="#fff" />
    <rect x="30" y="65" width="250" height="10" fill="#fff" />
    <rect x="30" y="80" width="250" height="10" fill="#fff" />

    <rect x="300" y="5" width="210" height=85 fill="#fff" />

    <line x1="300" y1="5" x2="305" y2="10" stroke="#333" stroke-width="3" />
    <line x1="510" y1="5" x2="505" y2="10" stroke="#333" stroke-width="3" />
    <line x1="300" y1="90" x2="305" y2="85" stroke="#333" stroke-width="3" />
    <line x1="510" y1="90" x2="505" y2="85" stroke="#333" stroke-width="3" />

    <rect x="320" y="20" width="10" height="50" fill="#fff" stroke="#333" stroke-width="2" />

    <circle stroke="#333" cx="350" cy="25" r="5" fill="#fff" />
    <circle stroke="#333" cx="350" cy="38" r="5" fill="#fff" />
    <circle stroke="#333" cx="350" cy="51" r="5" fill="#fff" />
    <circle stroke="#333" cx="350" cy="64" r="5" fill="#fff" />

    <circle stroke="#333" cx="460" cy="25" r="5" fill="#fff" />
    <circle stroke="#333" cx="460" cy="38" r="5" fill="#fff" />
    <circle stroke="#333" cx="460" cy="51" r="5" fill="#fff" />
    <circle stroke="#333" cx="460" cy="64" r="5" fill="#fff" />

    <rect x="480" y="20" width="10" height="50" fill="#fff" stroke="#333" stroke-width="2" />

    <rect x="525" rx="10" y="5" ry="5" width="10" height="85" fill="#fff"></rect>
</svg>